<mxfile host="app.diagrams.net" modified="2024-04-18T01:56:41.679Z" agent="Mozilla/5.0 (Windows NT 10.0; Win64; x64) AppleWebKit/537.36 (KHTML, like Gecko) Chrome/123.0.0.0 Safari/537.36" etag="QQkcWhFEOROWXVorjjLU" version="24.2.5" type="device">
  <diagram id="C5RBs43oDa-KdzZeNtuy" name="Page-1">
    <mxGraphModel dx="1728" dy="915" grid="1" gridSize="10" guides="1" tooltips="1" connect="1" arrows="1" fold="1" page="1" pageScale="1" pageWidth="1700" pageHeight="1100" math="0" shadow="0">
      <root>
        <mxCell id="WIyWlLk6GJQsqaUBKTNV-0" />
        <mxCell id="WIyWlLk6GJQsqaUBKTNV-1" parent="WIyWlLk6GJQsqaUBKTNV-0" />
        <mxCell id="gabhorXR5kh9bDeNslum-0" value=".FBX Model File" style="whiteSpace=wrap;html=1;aspect=fixed;" vertex="1" parent="WIyWlLk6GJQsqaUBKTNV-1">
          <mxGeometry x="200" y="640" width="80" height="80" as="geometry" />
        </mxCell>
        <mxCell id="gabhorXR5kh9bDeNslum-1" value="" style="endArrow=classic;html=1;rounded=0;" edge="1" parent="WIyWlLk6GJQsqaUBKTNV-1">
          <mxGeometry width="50" height="50" relative="1" as="geometry">
            <mxPoint x="280" y="679.5799999999999" as="sourcePoint" />
            <mxPoint x="360" y="680" as="targetPoint" />
          </mxGeometry>
        </mxCell>
        <mxCell id="gabhorXR5kh9bDeNslum-6" style="edgeStyle=orthogonalEdgeStyle;rounded=0;orthogonalLoop=1;jettySize=auto;html=1;" edge="1" parent="WIyWlLk6GJQsqaUBKTNV-1" source="gabhorXR5kh9bDeNslum-5">
          <mxGeometry relative="1" as="geometry">
            <mxPoint x="550" y="680" as="targetPoint" />
          </mxGeometry>
        </mxCell>
        <mxCell id="gabhorXR5kh9bDeNslum-8" value="Upload saved instance of object&lt;div&gt;Name, material and color data&lt;/div&gt;" style="edgeStyle=orthogonalEdgeStyle;rounded=0;orthogonalLoop=1;jettySize=auto;html=1;entryX=0;entryY=0.5;entryDx=0;entryDy=0;" edge="1" parent="WIyWlLk6GJQsqaUBKTNV-1" source="gabhorXR5kh9bDeNslum-5" target="gabhorXR5kh9bDeNslum-14">
          <mxGeometry x="-0.3953" relative="1" as="geometry">
            <mxPoint x="410" y="490" as="targetPoint" />
            <Array as="points">
              <mxPoint x="400" y="360" />
            </Array>
            <mxPoint as="offset" />
          </mxGeometry>
        </mxCell>
        <mxCell id="gabhorXR5kh9bDeNslum-5" value="MachineVisionAR Data Augmentation Platform" style="whiteSpace=wrap;html=1;aspect=fixed;" vertex="1" parent="WIyWlLk6GJQsqaUBKTNV-1">
          <mxGeometry x="360" y="640" width="80" height="80" as="geometry" />
        </mxCell>
        <mxCell id="gabhorXR5kh9bDeNslum-13" value="" style="edgeStyle=orthogonalEdgeStyle;rounded=0;orthogonalLoop=1;jettySize=auto;html=1;" edge="1" parent="WIyWlLk6GJQsqaUBKTNV-1" source="gabhorXR5kh9bDeNslum-7" target="gabhorXR5kh9bDeNslum-12">
          <mxGeometry relative="1" as="geometry" />
        </mxCell>
        <mxCell id="gabhorXR5kh9bDeNslum-15" value="Update image generation status" style="edgeStyle=orthogonalEdgeStyle;rounded=0;orthogonalLoop=1;jettySize=auto;html=1;entryX=0.5;entryY=1;entryDx=0;entryDy=0;" edge="1" parent="WIyWlLk6GJQsqaUBKTNV-1" source="gabhorXR5kh9bDeNslum-7" target="gabhorXR5kh9bDeNslum-14">
          <mxGeometry x="0.5" y="20" relative="1" as="geometry">
            <Array as="points">
              <mxPoint x="590" y="520" />
              <mxPoint x="670" y="520" />
            </Array>
            <mxPoint as="offset" />
          </mxGeometry>
        </mxCell>
        <mxCell id="gabhorXR5kh9bDeNslum-7" value="Blender Script Generating Images and Label Data" style="whiteSpace=wrap;html=1;aspect=fixed;" vertex="1" parent="WIyWlLk6GJQsqaUBKTNV-1">
          <mxGeometry x="550" y="640" width="80" height="80" as="geometry" />
        </mxCell>
        <mxCell id="gabhorXR5kh9bDeNslum-16" style="edgeStyle=orthogonalEdgeStyle;rounded=0;orthogonalLoop=1;jettySize=auto;html=1;entryX=1;entryY=0.5;entryDx=0;entryDy=0;" edge="1" parent="WIyWlLk6GJQsqaUBKTNV-1" target="gabhorXR5kh9bDeNslum-14">
          <mxGeometry relative="1" as="geometry">
            <mxPoint x="990" y="640" as="sourcePoint" />
            <mxPoint x="620" y="360" as="targetPoint" />
            <Array as="points">
              <mxPoint x="990" y="640" />
              <mxPoint x="990" y="360" />
            </Array>
          </mxGeometry>
        </mxCell>
        <mxCell id="gabhorXR5kh9bDeNslum-18" style="edgeStyle=orthogonalEdgeStyle;rounded=0;orthogonalLoop=1;jettySize=auto;html=1;" edge="1" parent="WIyWlLk6GJQsqaUBKTNV-1" source="gabhorXR5kh9bDeNslum-12" target="gabhorXR5kh9bDeNslum-19">
          <mxGeometry relative="1" as="geometry">
            <mxPoint x="920" y="680" as="targetPoint" />
          </mxGeometry>
        </mxCell>
        <mxCell id="gabhorXR5kh9bDeNslum-12" value="YOLO" style="whiteSpace=wrap;html=1;" vertex="1" parent="WIyWlLk6GJQsqaUBKTNV-1">
          <mxGeometry x="720" y="650" width="120" height="60" as="geometry" />
        </mxCell>
        <mxCell id="gabhorXR5kh9bDeNslum-23" style="edgeStyle=orthogonalEdgeStyle;rounded=0;orthogonalLoop=1;jettySize=auto;html=1;entryX=0.5;entryY=1;entryDx=0;entryDy=0;" edge="1" parent="WIyWlLk6GJQsqaUBKTNV-1" source="gabhorXR5kh9bDeNslum-14" target="gabhorXR5kh9bDeNslum-20">
          <mxGeometry relative="1" as="geometry" />
        </mxCell>
        <mxCell id="gabhorXR5kh9bDeNslum-14" value="Database" style="whiteSpace=wrap;html=1;aspect=fixed;" vertex="1" parent="WIyWlLk6GJQsqaUBKTNV-1">
          <mxGeometry x="630" y="320" width="80" height="80" as="geometry" />
        </mxCell>
        <mxCell id="gabhorXR5kh9bDeNslum-19" value="Model Endpoint" style="whiteSpace=wrap;html=1;aspect=fixed;" vertex="1" parent="WIyWlLk6GJQsqaUBKTNV-1">
          <mxGeometry x="950" y="640" width="80" height="80" as="geometry" />
        </mxCell>
        <mxCell id="gabhorXR5kh9bDeNslum-20" value="Real time object detection" style="whiteSpace=wrap;html=1;aspect=fixed;" vertex="1" parent="WIyWlLk6GJQsqaUBKTNV-1">
          <mxGeometry x="630" y="110" width="80" height="80" as="geometry" />
        </mxCell>
      </root>
    </mxGraphModel>
  </diagram>
</mxfile>
